<svg version="1.1" id="Layer_1" xmlns="http://www.w3.org/2000/svg" xmlns:xlink="http://www.w3.org/1999/xlink" x="0px" y="0px"
	 width="100%" viewBox="0 0 1024 1024" enable-background="new 0 0 1024 1024" xml:space="preserve">
<path fill="#000000" opacity="1.000000" stroke="none" 
	d="
M568.000000,1025.000000 
	C378.666656,1025.000000 189.833328,1025.000000 1.000000,1025.000000 
	C1.000000,683.666687 1.000000,342.333344 1.000000,1.000000 
	C342.333344,1.000000 683.666687,1.000000 1025.000000,1.000000 
	C1025.000000,342.333344 1025.000000,683.666687 1025.000000,1025.000000 
	C872.833313,1025.000000 720.666687,1025.000000 568.000000,1025.000000 
M827.768005,190.348099 
	C826.521301,189.955505 825.274536,189.562912 823.271179,189.011459 
	C821.552673,188.660629 819.834167,188.309799 817.977356,187.179993 
	C810.198547,182.392075 801.264832,184.826187 792.248169,183.042999 
	C791.504395,183.088043 790.760681,183.133072 789.087402,183.032806 
	C609.231506,183.024445 429.375580,183.013702 249.519669,183.047241 
	C247.982666,183.047531 246.445755,183.644394 243.983597,183.995346 
	C237.985474,183.998642 231.975037,184.249069 225.991898,183.951370 
	C215.111542,183.410049 205.180557,186.256989 196.135910,192.052780 
	C183.458481,200.176422 175.794418,211.507645 174.259354,227.417786 
	C174.172638,237.573242 174.011139,247.728699 174.010284,257.884155 
	C173.995407,437.337982 173.985077,616.791809 174.042389,796.245667 
	C174.045425,805.779785 176.859131,814.550537 182.971573,822.019470 
	C182.971573,822.019470 182.902527,822.042419 182.996384,822.621704 
	C183.390274,823.239807 183.784164,823.857910 184.257263,824.747864 
	C184.257263,824.747864 184.529556,824.825806 184.910736,825.336914 
	C187.019165,827.403442 189.127594,829.469910 191.292618,831.774231 
	C191.292618,831.774231 191.531815,831.824402 191.898666,832.275574 
	C192.591202,832.562439 193.283737,832.849304 194.104172,833.575684 
	C194.281921,833.857300 194.537094,834.006042 195.197617,834.627563 
	C196.792908,835.453796 198.388199,836.280090 200.237473,837.641968 
	C200.804092,837.782959 201.370697,837.923950 202.269516,838.650879 
	C203.313629,838.955933 204.357742,839.260925 205.665329,839.709045 
	C205.665329,839.709045 205.857208,839.478638 206.352463,839.907104 
	C207.232773,839.973938 208.113068,840.040710 208.983856,840.036133 
	C208.983856,840.036133 208.913483,840.051636 209.311462,840.713684 
	C213.301804,841.475220 217.291779,842.900635 221.282532,842.902832 
	C416.781097,843.012085 612.279968,843.132202 807.777832,842.746216 
	C823.376526,842.715393 837.001526,835.754700 845.011414,821.015076 
	C845.011414,821.015076 845.039246,821.078308 845.672241,820.763306 
	C850.659363,813.712891 852.931824,805.683167 852.935547,797.234619 
	C853.017944,608.735779 853.009521,420.236938 852.916077,231.738144 
	C852.914307,228.108887 851.683044,224.480240 850.982727,220.419769 
	C850.982727,220.419769 850.838928,220.010696 850.970276,219.303650 
	C850.655090,218.486862 850.339966,217.670090 849.994385,216.197662 
	C849.379028,215.121933 848.763672,214.046219 848.021301,212.275040 
	C847.688354,211.472015 847.355408,210.668976 846.976318,209.427719 
	C846.976318,209.427719 846.831116,209.011703 846.876343,208.473984 
	C846.591431,208.268951 846.306519,208.063934 845.758057,207.259933 
	C844.775391,205.842529 843.792725,204.425140 842.843933,202.486832 
	C842.565186,202.294464 842.286377,202.102081 841.878845,201.459213 
	C841.698792,201.172089 841.439880,201.014648 840.862915,200.409607 
	C839.840271,199.442184 838.817627,198.474747 837.726685,197.258469 
	C837.726685,197.258469 837.475403,197.199615 837.111389,196.740143 
	C836.416016,196.445908 835.720581,196.151688 834.900757,195.418503 
	C834.723816,195.136917 834.469177,194.989685 833.836975,194.403168 
	C832.905579,193.903168 831.974243,193.403168 831.025269,192.974060 
	C831.025269,192.974060 831.093445,192.947708 830.832642,192.348389 
	C829.900452,191.869019 828.968201,191.389633 828.016724,190.978058 
	C828.016724,190.978058 828.083496,190.955460 827.768005,190.348099 
z"/>
<path fill="#3201FE" opacity="1.000000" stroke="none" 
	d="
M848.148315,212.970490 
	C848.763672,214.046219 849.379028,215.121933 850.000122,216.864044 
	C850.283569,218.357193 850.561218,219.183945 850.838928,220.010696 
	C850.838928,220.010696 850.982727,220.419769 850.988525,221.104691 
	C851.323059,226.541306 851.651855,231.293015 851.726318,236.366394 
	C851.312012,238.163269 851.012024,239.638428 851.011841,241.113602 
	C850.992004,422.979340 850.991638,604.845093 851.036438,786.710815 
	C851.036865,788.460449 851.653503,790.209900 851.991638,792.391418 
	C850.889038,799.004944 849.978394,805.232300 848.585510,811.349854 
	C847.825256,814.688721 846.247986,817.841553 845.039185,821.078308 
	C845.039246,821.078308 845.011414,821.015076 844.699463,821.068359 
	C840.786926,824.324646 837.186340,827.527771 833.636658,830.685547 
	C832.228210,829.652405 831.110046,828.832275 830.151062,827.718018 
	C831.791870,825.866638 833.322754,824.352966 834.747131,822.744873 
	C842.313599,814.201965 848.024536,804.821106 848.295654,792.593262 
	C848.698853,790.798340 848.980286,789.319763 848.980469,787.841187 
	C848.999573,605.020813 849.000671,422.200439 848.958557,239.380081 
	C848.958130,237.624893 848.369263,235.869843 847.894958,233.750519 
	C846.991150,229.648682 846.581055,225.806625 845.448669,222.190735 
	C839.138855,202.041824 821.244934,189.006363 800.120361,189.005661 
	C617.487854,188.999588 434.855286,188.954346 252.222870,189.089828 
	C237.796631,189.100540 223.371338,190.382462 208.842499,190.769257 
	C209.747498,189.418961 210.697723,187.559616 211.774796,187.482956 
	C214.736389,187.272202 217.750504,188.006546 220.745056,188.016907 
	C236.188568,188.070343 251.632797,188.058121 267.075958,187.953262 
	C269.698334,187.935471 272.316833,187.355438 274.951874,187.027649 
	C274.966614,187.020157 274.983429,187.033966 275.284119,187.269623 
	C277.390900,187.646378 279.196991,187.787506 281.460632,187.934784 
	C285.273895,187.933258 288.629639,187.925568 292.322998,187.937683 
	C293.111115,187.942734 293.561584,187.927979 294.468964,187.921677 
	C298.278992,187.931427 301.632111,187.932724 305.323120,187.951385 
	C306.111633,187.954849 306.562286,187.940903 307.480621,187.932648 
	C314.964355,187.934189 321.980408,187.930038 329.424805,187.948059 
	C331.569305,187.955719 333.285461,187.941223 335.455444,187.933029 
	C338.937988,187.935699 341.966705,187.932083 345.463531,187.950348 
	C352.955200,187.956161 359.978729,187.940094 367.465088,187.930237 
	C371.945648,187.929810 375.963409,187.923187 380.240295,187.929169 
	C380.672241,187.934311 380.845032,187.926834 381.444336,187.927582 
	C383.577545,187.933273 385.284271,187.930710 387.392120,187.950134 
	C388.863800,187.955688 389.934357,187.939270 391.473083,187.928848 
	C398.958008,187.929962 405.974701,187.925079 413.367859,187.942902 
	C414.498016,187.950989 415.251740,187.936386 416.337463,187.923157 
	C417.112152,187.924942 417.554871,187.925354 418.434692,187.947876 
	C420.914642,187.954636 422.957397,187.939285 425.460663,187.930588 
	C429.612152,187.935013 433.303162,187.932785 437.394836,187.951721 
	C438.864899,187.958282 439.934326,187.943649 441.471375,187.935516 
	C447.624725,187.938080 453.310394,187.934174 459.395203,187.951233 
	C461.549347,187.681717 463.304413,187.391235 465.508057,187.102219 
	C468.949829,187.106262 471.943054,187.108856 475.195068,187.311356 
	C476.304016,187.648560 477.154114,187.785858 478.461914,187.930817 
	C482.278320,187.936295 485.637054,187.934082 489.424316,187.952484 
	C491.568848,187.957672 493.284912,187.942261 495.461365,187.933289 
	C499.612274,187.938873 503.302765,187.937988 507.461365,187.957123 
	C513.954590,187.964493 519.979736,187.951828 526.403687,187.943298 
	C527.866272,187.940979 528.929871,187.934494 530.394165,187.949249 
	C531.863831,187.953232 532.932922,187.935944 534.470337,187.925934 
	C542.621582,187.930405 550.304443,187.927612 558.324219,187.943909 
	C559.110840,187.950424 559.560486,187.937851 560.469910,187.932190 
	C564.615906,187.931732 568.302124,187.924347 572.277588,187.901581 
	C573.063660,187.614349 573.560486,187.342499 574.417114,187.085602 
	C576.183655,187.374542 577.590332,187.648544 579.425354,187.944946 
	C581.569519,187.953323 583.285400,187.939316 585.458862,187.931610 
	C589.272644,187.936356 592.628723,187.934814 596.322815,187.951080 
	C597.111694,187.956573 597.562622,187.944275 598.450012,187.938263 
	C600.923645,187.936295 602.960815,187.928009 605.451416,187.942993 
	C608.937500,187.956909 611.970032,187.947571 615.471069,187.942978 
	C627.292175,187.937607 638.644714,187.927490 650.425537,187.940598 
	C652.569519,187.948914 654.285217,187.933975 656.468750,187.925903 
	C662.622620,187.925171 668.308655,187.917603 674.411621,187.934967 
	C676.220215,187.943253 677.611877,187.926620 679.463928,187.918488 
	C683.615295,187.920364 687.306396,187.913773 691.413757,187.932800 
	C693.219971,187.941711 694.609863,187.924988 696.462769,187.917328 
	C700.946899,187.919098 704.967957,187.911819 709.325562,187.926605 
	C710.111267,187.933899 710.560425,187.919128 711.401733,187.912354 
	C712.839294,187.908585 713.884705,187.896820 715.389526,187.917969 
	C718.591614,187.929153 721.334229,187.907440 724.396606,187.900116 
	C725.143982,187.912888 725.571594,187.911270 726.427246,187.935028 
	C728.571106,187.946579 730.287109,187.932739 732.430420,187.925507 
	C734.567932,187.922043 736.278076,187.911972 738.457092,187.924484 
	C754.279724,187.952332 769.633423,187.957596 785.454895,187.972046 
	C790.235779,187.954788 795.042419,189.144165 798.754944,187.637604 
	C805.560181,184.875931 811.702148,186.488998 818.115662,187.958984 
	C819.834167,188.309799 821.552673,188.660629 823.844849,189.362244 
	C825.640198,190.127182 826.861816,190.541321 828.083496,190.955460 
	C828.083496,190.955460 828.016724,190.978058 828.101135,191.283890 
	C829.154846,192.042389 830.124146,192.495056 831.093445,192.947723 
	C831.093445,192.947708 831.025269,192.974060 831.108582,193.281952 
	C832.173584,194.052170 833.155212,194.514496 834.136902,194.976822 
	C834.469177,194.989685 834.723816,195.136917 835.045288,195.980789 
	C835.951660,196.761932 836.713562,196.980774 837.475403,197.199615 
	C837.475403,197.199615 837.726685,197.258469 837.604980,197.740845 
	C838.689514,199.144440 839.895813,200.065674 841.102112,200.986893 
	C841.439880,201.014648 841.698792,201.172089 842.042297,201.891388 
	C842.362976,202.590714 842.564392,202.818787 842.810059,203.007751 
	C843.792725,204.425140 844.775391,205.842529 845.985962,207.777222 
	C846.369690,208.576569 846.575439,208.815628 846.831116,209.011703 
	C846.831116,209.011703 846.976318,209.427719 846.996216,209.998352 
	C847.393494,211.369492 847.770935,212.169983 848.148315,212.970490 
z"/>
<path fill="#3201FE" opacity="1.000000" stroke="none" 
	d="
M201.937317,838.064941 
	C201.370697,837.923950 200.804092,837.782959 200.032166,837.024719 
	C198.174469,835.612244 196.522095,834.817078 194.869690,834.021912 
	C194.537094,834.006042 194.281921,833.857300 193.956696,833.014648 
	C193.050079,832.243896 192.290939,832.034180 191.531815,831.824402 
	C191.531815,831.824402 191.292618,831.774231 191.354858,831.305603 
	C189.448318,828.458496 189.279053,824.018188 184.529556,824.825806 
	C184.529556,824.825806 184.257263,824.747864 184.370544,824.292847 
	C183.956726,823.239319 183.429626,822.640869 182.902527,822.042419 
	C182.902527,822.042419 182.971573,822.019470 182.964233,821.677979 
	C178.136246,812.134949 175.318100,802.391907 175.268036,791.644043 
	C175.683868,789.511719 175.989716,787.703979 175.989929,785.896240 
	C176.011108,604.528687 176.012177,423.161194 175.967697,241.793686 
	C175.967224,239.876480 175.350082,237.959442 175.013306,235.627121 
	C175.007370,233.827896 175.008942,232.443893 175.239563,230.804459 
	C176.643494,228.995697 177.818375,227.442352 179.001297,226.327972 
	C178.677841,229.176163 178.346329,231.585388 177.762665,234.324982 
	C177.341034,236.295410 177.023315,237.935410 177.023117,239.575455 
	C176.999878,422.115784 176.997345,604.656067 177.040024,787.196411 
	C177.040466,789.114624 177.652191,791.032715 178.140060,793.314453 
	C178.471024,794.145447 178.740173,794.601379 178.795578,795.081970 
	C181.118988,815.237244 192.077026,828.426270 211.120453,835.003052 
	C214.671997,836.229553 218.373383,837.022095 222.338165,838.260620 
	C224.477921,838.673706 226.285110,838.987732 228.092346,838.987915 
	C417.811584,839.003906 607.530823,838.999329 797.250061,838.949036 
	C799.167297,838.948547 801.084412,838.327087 803.296387,837.757446 
	C811.044739,835.364563 818.498230,833.209656 825.956299,831.464661 
	C826.645203,835.302307 825.096802,837.374817 821.843506,838.031494 
	C814.895935,839.433777 807.914062,840.666748 800.620728,841.723267 
	C798.653015,841.320984 797.010864,841.027588 795.368774,841.027405 
	C606.844299,841.000244 418.319855,840.992004 229.795395,841.029358 
	C227.877151,841.029724 225.959045,841.647644 223.620392,841.979675 
	C218.437759,841.338562 213.675613,840.695129 208.913483,840.051636 
	C208.913483,840.051636 208.983856,840.036133 208.742279,839.825562 
	C207.619537,839.569580 206.738373,839.524109 205.857208,839.478638 
	C205.857208,839.478638 205.665329,839.709045 205.546371,839.312500 
	C204.264038,838.632324 203.100677,838.348633 201.937317,838.064941 
z"/>
<path fill="#4802FD" opacity="1.000000" stroke="none" 
	d="
M209.112473,840.382690 
	C213.675613,840.695129 218.437759,841.338562 224.084229,841.986938 
	C416.961151,841.984253 608.953735,841.976746 800.946289,841.969116 
	C807.914062,840.666748 814.895935,839.433777 821.843506,838.031494 
	C825.096802,837.374817 826.645203,835.302307 826.248657,831.316101 
	C827.688293,829.842407 828.840088,828.927246 829.991943,828.012085 
	C831.110046,828.832275 832.228210,829.652405 833.636658,830.685547 
	C837.186340,827.527771 840.786926,824.324646 844.732544,821.077942 
	C837.001526,835.754700 823.376526,842.715393 807.777832,842.746216 
	C612.279968,843.132202 416.781097,843.012085 221.282532,842.902832 
	C217.291779,842.900635 213.301804,841.475220 209.112473,840.382690 
z"/>
<path fill="#4802FD" opacity="1.000000" stroke="none" 
	d="
M818.046509,187.569489 
	C811.702148,186.488998 805.560181,184.875931 798.754944,187.637604 
	C795.042419,189.144165 790.235779,187.954788 785.546509,187.657928 
	C785.874634,186.527435 786.578918,185.720245 788.064941,184.017166 
	C762.735046,184.017166 738.358765,184.017166 713.515015,184.016693 
	C647.567871,184.009415 582.083740,183.515152 516.610046,184.132996 
	C451.269653,184.749557 385.893585,181.533508 320.578796,185.848145 
	C315.286591,186.197754 309.883209,184.275040 304.508240,184.092697 
	C295.355164,183.782181 286.183594,184.015671 276.549927,184.014023 
	C265.689636,183.992554 255.299210,183.977631 244.908798,183.962708 
	C246.445755,183.644394 247.982666,183.047531 249.519669,183.047241 
	C429.375580,183.013702 609.231506,183.024445 789.570862,183.438477 
	C790.643250,184.434998 791.232178,185.025848 791.821106,185.616684 
	C792.208435,184.805450 792.595764,183.994232 792.983154,183.183014 
	C801.264832,184.826187 810.198547,182.392075 818.046509,187.569489 
z"/>
<path fill="#4802FD" opacity="1.000000" stroke="none" 
	d="
M845.355713,820.920776 
	C846.247986,817.841553 847.825256,814.688721 848.585510,811.349854 
	C849.978394,805.232300 850.889038,799.004944 851.990845,791.927307 
	C851.980835,606.035706 851.980774,421.040222 851.980652,236.044708 
	C851.651855,231.293015 851.323059,226.541306 851.009827,221.320465 
	C851.683044,224.480240 852.914307,228.108887 852.916077,231.738144 
	C853.009521,420.236938 853.017944,608.735779 852.935547,797.234619 
	C852.931824,805.683167 850.659363,813.712891 845.355713,820.920776 
z"/>
<path fill="#4802FD" opacity="1.000000" stroke="none" 
	d="
M175.015366,791.968689 
	C175.318100,802.391907 178.136246,812.134949 182.953308,821.712646 
	C176.859131,814.550537 174.045425,805.779785 174.042389,796.245667 
	C173.985077,616.791809 173.995407,437.337982 174.010284,257.884155 
	C174.011139,247.728699 174.172638,237.573242 174.621262,227.577271 
	C174.992294,228.844467 175.001419,229.952164 175.010529,231.059875 
	C175.008942,232.443893 175.007370,233.827896 175.010193,236.090927 
	C175.014862,421.969513 175.015121,606.969116 175.015366,791.968689 
z"/>
<path fill="#510DFE" opacity="1.000000" stroke="none" 
	d="
M175.239563,230.804459 
	C175.001419,229.952164 174.992294,228.844467 174.975159,227.322632 
	C175.794418,211.507645 183.458481,200.176422 196.135910,192.052780 
	C205.180557,186.256989 215.111542,183.410049 225.991898,183.951370 
	C231.975037,184.249069 237.985474,183.998642 244.446198,183.979034 
	C255.299210,183.977631 265.689636,183.992554 276.479797,184.316528 
	C276.232086,185.428772 275.584595,186.231964 274.937134,187.035156 
	C272.316833,187.355438 269.698334,187.935471 267.075958,187.953262 
	C251.632797,188.058121 236.188568,188.070343 220.745056,188.016907 
	C217.750504,188.006546 214.736389,187.272202 211.774796,187.482956 
	C210.697723,187.559616 209.747498,189.418961 208.654572,191.050766 
	C205.980255,192.975311 203.327881,194.206116 200.812851,195.672516 
	C192.499969,200.519440 186.703979,207.726044 181.783691,216.206070 
	C180.692871,218.942871 179.879440,221.454178 179.051910,224.286713 
	C179.022964,225.034958 179.008102,225.461990 178.993256,225.889008 
	C177.818375,227.442352 176.643494,228.995697 175.239563,230.804459 
z"/>
<path fill="#4802FD" opacity="1.000000" stroke="none" 
	d="
M184.720154,825.081360 
	C189.279053,824.018188 189.448318,828.458496 191.326569,831.186646 
	C189.127594,829.469910 187.019165,827.403442 184.720154,825.081360 
z"/>
<path fill="#510DFE" opacity="1.000000" stroke="none" 
	d="
M792.615662,183.113007 
	C792.595764,183.994232 792.208435,184.805450 791.821106,185.616684 
	C791.232178,185.025848 790.643250,184.434998 790.035645,183.511139 
	C790.760681,183.133072 791.504395,183.088043 792.615662,183.113007 
z"/>
<path fill="#4802FD" opacity="1.000000" stroke="none" 
	d="
M840.982544,200.698242 
	C839.895813,200.065674 838.689514,199.144440 837.639099,197.865265 
	C838.817627,198.474747 839.840271,199.442184 840.982544,200.698242 
z"/>
<path fill="#4802FD" opacity="1.000000" stroke="none" 
	d="
M195.033661,834.324707 
	C196.522095,834.817078 198.174469,835.612244 199.905182,836.756897 
	C198.388199,836.280090 196.792908,835.453796 195.033661,834.324707 
z"/>
<path fill="#4802FD" opacity="1.000000" stroke="none" 
	d="
M202.103424,838.357910 
	C203.100677,838.348633 204.264038,838.632324 205.414642,839.240967 
	C204.357742,839.260925 203.313629,838.955933 202.103424,838.357910 
z"/>
<path fill="#4802FD" opacity="1.000000" stroke="none" 
	d="
M830.963013,192.648056 
	C830.124146,192.495056 829.154846,192.042389 828.110779,191.250000 
	C828.968201,191.389633 829.900452,191.869019 830.963013,192.648056 
z"/>
<path fill="#4802FD" opacity="1.000000" stroke="none" 
	d="
M827.925781,190.651779 
	C826.861816,190.541321 825.640198,190.127182 824.223145,189.441681 
	C825.274536,189.562912 826.521301,189.955505 827.925781,190.651779 
z"/>
<path fill="#4802FD" opacity="1.000000" stroke="none" 
	d="
M191.715240,832.049988 
	C192.290939,832.034180 193.050079,832.243896 193.892731,832.794922 
	C193.283737,832.849304 192.591202,832.562439 191.715240,832.049988 
z"/>
<path fill="#4802FD" opacity="1.000000" stroke="none" 
	d="
M182.949463,822.332031 
	C183.429626,822.640869 183.956726,823.239319 184.330933,824.156860 
	C183.784164,823.857910 183.390274,823.239807 182.949463,822.332031 
z"/>
<path fill="#4802FD" opacity="1.000000" stroke="none" 
	d="
M833.986938,194.690002 
	C833.155212,194.514496 832.173584,194.052170 831.117371,193.246506 
	C831.974243,193.403168 832.905579,193.903168 833.986938,194.690002 
z"/>
<path fill="#4802FD" opacity="1.000000" stroke="none" 
	d="
M837.293396,196.969879 
	C836.713562,196.980774 835.951660,196.761932 835.107544,196.200256 
	C835.720581,196.151688 836.416016,196.445908 837.293396,196.969879 
z"/>
<path fill="#4802FD" opacity="1.000000" stroke="none" 
	d="
M206.104828,839.692871 
	C206.738373,839.524109 207.619537,839.569580 208.747040,839.861267 
	C208.113068,840.040710 207.232773,839.973938 206.104828,839.692871 
z"/>
<path fill="#4802FD" opacity="1.000000" stroke="none" 
	d="
M850.904602,219.657166 
	C850.561218,219.183945 850.283569,218.357193 850.015381,217.191879 
	C850.339966,217.670090 850.655090,218.486862 850.904602,219.657166 
z"/>
<path fill="#4802FD" opacity="1.000000" stroke="none" 
	d="
M848.084839,212.622772 
	C847.770935,212.169983 847.393494,211.369492 847.019287,210.217468 
	C847.355408,210.668976 847.688354,211.472015 848.084839,212.622772 
z"/>
<path fill="#4802FD" opacity="1.000000" stroke="none" 
	d="
M842.827026,202.747284 
	C842.564392,202.818787 842.362976,202.590714 842.106689,202.116638 
	C842.286377,202.102081 842.565186,202.294464 842.827026,202.747284 
z"/>
<path fill="#4802FD" opacity="1.000000" stroke="none" 
	d="
M846.853760,208.742844 
	C846.575439,208.815628 846.369690,208.576569 846.117676,208.076691 
	C846.306519,208.063934 846.591431,208.268951 846.853760,208.742844 
z"/>
<path fill="#4900FF" opacity="1.000000" stroke="none" 
	d="
M182.061066,215.980560 
	C186.703979,207.726044 192.499969,200.519440 200.812851,195.672516 
	C203.327881,194.206116 205.980255,192.975311 208.757660,191.355087 
	C223.371338,190.382462 237.796631,189.100540 252.222870,189.089828 
	C434.855286,188.954346 617.487854,188.999588 800.120361,189.005661 
	C821.244934,189.006363 839.138855,202.041824 845.448669,222.190735 
	C846.581055,225.806625 846.991150,229.648682 847.874451,234.206421 
	C848.005310,281.850006 847.985535,328.673462 847.989746,375.496948 
	C848.002319,514.634521 848.024292,653.772034 848.042603,792.909607 
	C848.024536,804.821106 842.313599,814.201965 834.747131,822.744873 
	C833.322754,824.352966 831.791870,825.866638 830.151062,827.718018 
	C828.840088,828.927246 827.688293,829.842407 826.244080,830.906189 
	C818.498230,833.209656 811.044739,835.364563 802.827637,837.746887 
	C749.603821,837.982117 697.143616,837.993774 644.683411,837.996765 
	C503.790802,838.004822 362.898193,838.009155 222.005615,838.014893 
	C218.373383,837.022095 214.671997,836.229553 211.120453,835.003052 
	C192.077026,828.426270 181.118988,815.237244 178.795578,795.081970 
	C178.740173,794.601379 178.471024,794.145447 178.141541,792.851257 
	C177.981644,611.117920 177.981522,430.211273 177.983322,249.304657 
	C177.983368,244.201309 178.003860,239.097946 178.014816,233.994598 
	C178.346329,231.585388 178.677841,229.176163 179.001297,226.327972 
	C179.008102,225.461990 179.022964,225.034958 179.346313,224.095551 
	C180.456894,221.048950 181.258987,218.514755 182.061066,215.980560 
M691.795471,339.492371 
	C691.424133,339.038788 691.052795,338.585175 690.126953,337.767517 
	C681.915405,324.492889 670.902832,313.992554 656.659302,307.834229 
	C646.860107,303.597412 636.180603,301.396698 625.329834,297.687225 
	C623.708496,297.456390 622.087219,297.023865 620.465820,297.023468 
	C511.389557,296.996582 402.313293,296.998840 293.237061,297.061188 
	C291.535004,297.062164 289.833435,297.840393 287.725952,298.851013 
	C284.006866,302.031921 283.733459,304.971863 287.602234,310.467682 
	C303.174042,332.588226 318.890717,354.606934 334.584808,376.641235 
	C337.779907,381.127136 341.905975,383.114655 347.731964,383.103394 
	C432.216980,382.940094 516.702393,382.988983 601.187744,382.996704 
	C610.258789,382.997528 614.644165,386.387726 616.388977,395.686432 
	C616.288879,412.165192 616.180847,428.643951 616.120239,445.122864 
	C616.117981,445.732025 616.579468,446.342926 616.972839,447.730713 
	C615.192627,457.509094 611.291504,461.682709 601.252869,463.382355 
	C600.100769,463.258667 598.948608,463.026825 597.796509,463.026642 
	C509.810364,463.012695 421.824219,463.008179 333.838135,463.089905 
	C332.245361,463.091400 330.653564,464.141296 328.634094,464.965454 
	C328.467834,464.983978 328.301575,465.002472 327.709106,465.354462 
	C327.485168,465.636414 327.261230,465.918365 327.053101,466.593262 
	C327.053101,466.593262 326.878784,466.945770 326.410217,467.640167 
	C326.272888,469.287140 326.015808,470.934113 326.015381,472.581116 
	C325.993713,553.621887 325.988342,634.662659 326.030243,715.703430 
	C326.031158,717.464050 326.601898,719.224365 327.175262,721.673096 
	C327.712860,726.412659 330.736481,728.198181 335.616608,729.048340 
	C337.034149,729.359497 338.450836,729.937195 339.869324,729.941467 
	C359.160889,730.000183 378.452789,730.001221 397.744324,729.933594 
	C399.153412,729.928650 400.560242,729.285217 402.584259,728.482361 
	C406.067261,727.783325 410.058075,728.118042 412.408569,723.346619 
	C412.607330,721.885498 412.979095,720.424500 412.979797,718.963318 
	C413.006104,664.591492 413.004517,610.219666 412.963959,555.847839 
	C412.962738,554.233398 412.503632,552.619324 412.343262,550.359009 
	C413.884399,549.296753 415.425537,548.234436 417.672302,547.613647 
	C418.817291,547.744568 419.962158,547.988892 421.107269,547.989929 
	C449.635376,548.016663 478.163574,548.029602 506.691620,547.988586 
	C508.129852,547.986511 509.567322,547.479004 511.719391,547.117310 
	C513.719116,548.702637 516.266052,549.915039 517.638062,551.928223 
	C547.759338,596.126221 577.704346,640.444336 607.793274,684.664490 
	C617.279480,698.605835 627.064636,712.344299 636.792542,726.119385 
	C637.395630,726.973328 638.635925,727.664490 639.686401,727.860901 
	C642.768127,728.437134 645.903809,728.725159 649.708862,729.573242 
	C650.523499,729.711121 651.338074,729.968994 652.152771,729.969543 
	C675.639954,729.985962 699.127258,729.992798 722.614258,729.931274 
	C724.041626,729.927551 725.467346,729.347595 727.511353,728.570068 
	C736.260010,726.696472 736.983704,724.775146 731.855347,716.995178 
	C731.307800,716.164429 730.688843,715.381165 730.126587,714.559631 
	C693.341553,660.812683 656.553772,607.067566 619.806519,553.294800 
	C618.888672,551.951721 618.421387,550.300659 617.446167,548.130310 
	C659.929382,545.846802 687.341370,525.302124 699.891724,484.754822 
	C701.255005,478.017883 703.609192,471.308014 703.793884,464.538910 
	C704.325073,445.070984 703.902222,425.578766 704.002991,406.096832 
	C704.082947,390.634979 704.407410,375.160431 700.901367,359.965149 
	C700.353333,357.590088 698.787537,355.449890 697.837402,353.106567 
	C697.837402,353.106567 697.732666,353.244415 697.829041,352.538605 
	C697.424194,351.777771 697.019287,351.016937 696.914612,350.009979 
	C696.914612,350.009979 696.632080,350.275879 696.775818,349.558533 
	C696.152039,348.392120 695.528259,347.225677 694.996826,346.015167 
	C694.996826,346.015167 694.918701,346.081451 694.872986,345.485443 
	C694.542969,345.009491 694.213013,344.533539 693.973206,344.030396 
	C693.973206,344.030396 693.909363,344.099701 693.866943,343.504791 
	C693.546509,343.023132 693.226135,342.541473 693.000000,342.018341 
	C693.000000,342.018341 692.906555,342.069580 692.859497,341.482880 
	C692.526550,341.021790 692.193604,340.560699 691.978394,340.018921 
	C691.978394,340.018921 691.855530,340.103973 691.795471,339.492371 
z"/>
<path fill="#5A1FFE" opacity="1.000000" stroke="none" 
	d="
M274.951874,187.027649 
	C275.584595,186.231964 276.232086,185.428772 276.949677,184.323090 
	C286.183594,184.015671 295.355164,183.782181 304.508240,184.092697 
	C309.883209,184.275040 315.286591,186.197754 320.578796,185.848145 
	C385.893585,181.533508 451.269653,184.749557 516.610046,184.132996 
	C582.083740,183.515152 647.567871,184.009415 713.567871,184.347870 
	C714.368958,185.748047 714.649536,186.816559 714.930176,187.885071 
	C713.884705,187.896820 712.839294,187.908585 711.229004,187.746201 
	C710.105774,187.682877 709.547424,187.793716 708.989075,187.904541 
	C704.967957,187.911819 700.946899,187.919098 696.195679,187.708496 
	C693.976135,187.629486 692.486816,187.768326 690.997437,187.907166 
	C687.306396,187.913773 683.615295,187.920364 679.196655,187.708466 
	C676.977661,187.629990 675.486206,187.770004 673.994751,187.910034 
	C668.308655,187.917603 662.622620,187.925171 656.184753,187.710480 
	C653.621094,187.631256 651.809204,187.774307 649.997314,187.917358 
	C638.644714,187.927490 627.292175,187.937607 615.148926,187.714630 
	C611.238159,187.627594 608.118042,187.773666 604.997986,187.919739 
	C602.960815,187.928009 600.923645,187.936295 598.277344,187.768295 
	C597.107056,187.705765 596.545959,187.819519 595.984863,187.933289 
	C592.628723,187.934814 589.272644,187.936356 585.174805,187.716156 
	C582.621155,187.637146 580.809082,187.779846 578.997070,187.922546 
	C577.590332,187.648544 576.183655,187.374542 574.126099,187.101440 
	C572.979614,187.373886 572.483948,187.645416 571.988342,187.916962 
	C568.302124,187.924347 564.615906,187.931732 560.297485,187.763947 
	C559.105896,187.700806 558.546570,187.812805 557.987244,187.924820 
	C550.304443,187.927612 542.621582,187.930405 534.225220,187.722748 
	C532.338928,187.650864 531.166199,187.789444 529.993530,187.928009 
	C528.929871,187.934494 527.866272,187.940979 526.065430,187.709015 
	C519.216614,187.626068 513.104919,187.781586 506.993225,187.937103 
	C503.302765,187.937988 499.612274,187.938873 495.177307,187.717651 
	C492.620453,187.640991 490.808136,187.786438 488.995819,187.931885 
	C485.637054,187.934082 482.278320,187.936295 478.210358,187.722168 
	C476.646179,187.374374 475.791229,187.242905 474.936249,187.111435 
	C471.943054,187.108856 468.949829,187.106262 465.104553,187.074829 
	C462.500336,187.340759 460.748199,187.635529 458.996094,187.930267 
	C453.310394,187.934174 447.624725,187.938080 441.226562,187.730560 
	C439.340759,187.656265 438.167480,187.793396 436.994171,187.930542 
	C433.303162,187.932785 429.612152,187.935013 425.163452,187.711945 
	C422.269714,187.633026 420.133636,187.779388 417.997559,187.925751 
	C417.554871,187.925354 417.112152,187.924942 416.122864,187.730316 
	C414.714630,187.664139 413.853027,187.792175 412.991425,187.920197 
	C405.974701,187.925079 398.958008,187.929962 391.227905,187.724274 
	C389.339996,187.651840 388.165497,187.789993 386.990997,187.928131 
	C385.284271,187.930710 383.577545,187.933273 381.332764,187.816315 
	C380.475952,187.549149 380.204773,187.622406 379.981171,187.916565 
	C375.963409,187.923187 371.945648,187.929810 367.126312,187.697815 
	C359.214966,187.615616 352.105194,187.772049 344.995422,187.928467 
	C341.966705,187.932083 338.937988,187.935699 335.171509,187.716797 
	C332.621307,187.638123 330.808868,187.781998 328.996460,187.925888 
	C321.980408,187.930038 314.964355,187.934189 307.307617,187.763275 
	C306.106354,187.703476 305.545776,187.818741 304.985229,187.934006 
	C301.632111,187.932724 298.278992,187.931427 294.295807,187.753876 
	C293.105621,187.691040 292.545471,187.804459 291.985352,187.917877 
	C288.629639,187.925568 285.273895,187.933258 281.155823,187.709534 
	C278.590149,187.330078 276.786774,187.182022 274.983429,187.033966 
	C274.983429,187.033966 274.966614,187.020157 274.951874,187.027649 
M382.500000,185.997269 
	C491.126617,185.997269 599.753235,185.997269 708.379822,185.997269 
	C708.379333,185.767197 708.378906,185.537140 708.378418,185.307068 
	C582.793945,185.307068 457.209412,185.307068 331.624908,185.307068 
	C331.624084,185.537323 331.623291,185.767563 331.622467,185.997818 
	C348.248291,185.997818 364.874146,185.997818 382.500000,185.997269 
M300.388336,184.997086 
	C297.825500,184.997086 295.262665,184.997086 292.699829,184.997086 
	C292.722351,185.255127 292.744843,185.513153 292.767365,185.771194 
	C297.336487,185.771194 301.905579,185.771194 306.868713,185.771194 
	C306.231812,185.371750 305.991547,185.094696 305.739960,185.084030 
	C304.253235,185.020905 302.763885,185.019653 300.388336,184.997086 
z"/>
<path fill="#0500FE" opacity="1.000000" stroke="none" 
	d="
M848.295654,792.593262 
	C848.024292,653.772034 848.002319,514.634521 847.989746,375.496948 
	C847.985535,328.673462 848.005310,281.850006 848.034668,234.570618 
	C848.369263,235.869843 848.958130,237.624893 848.958557,239.380081 
	C849.000671,422.200439 848.999573,605.020813 848.980469,787.841187 
	C848.980286,789.319763 848.698853,790.798340 848.295654,792.593262 
z"/>
<path fill="#0500FE" opacity="1.000000" stroke="none" 
	d="
M851.726318,236.366394 
	C851.980774,421.040222 851.980835,606.035706 851.981689,791.495361 
	C851.653503,790.209900 851.036865,788.460449 851.036438,786.710815 
	C850.991638,604.845093 850.992004,422.979340 851.011841,241.113602 
	C851.012024,239.638428 851.312012,238.163269 851.726318,236.366394 
z"/>
<path fill="#510DFE" opacity="1.000000" stroke="none" 
	d="
M715.389526,187.917969 
	C714.649536,186.816559 714.368958,185.748047 714.035461,184.348343 
	C738.358765,184.017166 762.735046,184.017166 788.064941,184.017166 
	C786.578918,185.720245 785.874634,186.527435 785.078735,187.648743 
	C769.633423,187.957596 754.279724,187.952332 738.628906,187.713593 
	C738.435913,187.350540 738.558411,187.231323 738.638672,187.088364 
	C738.718445,186.946228 738.755737,186.780258 738.811646,186.624725 
	C733.833923,186.272400 728.703430,184.134323 724.076904,187.885727 
	C721.334229,187.907440 718.591614,187.929153 715.389526,187.917969 
z"/>
<path fill="#5A1FFE" opacity="1.000000" stroke="none" 
	d="
M724.396606,187.900116 
	C728.703430,184.134323 733.833923,186.272400 738.811646,186.624725 
	C738.755737,186.780258 738.718445,186.946228 738.638672,187.088364 
	C738.558411,187.231323 738.435913,187.350540 738.160034,187.691010 
	C736.278076,187.911972 734.567932,187.922043 732.146606,187.709320 
	C729.623352,187.627563 727.811340,187.768600 725.999268,187.909637 
	C725.571594,187.911270 725.143982,187.912888 724.396606,187.900116 
z"/>
<path fill="#510DFE" opacity="1.000000" stroke="none" 
	d="
M345.463531,187.950348 
	C352.105194,187.772049 359.214966,187.615616 366.663513,187.691620 
	C359.978729,187.940094 352.955200,187.956161 345.463531,187.950348 
z"/>
<path fill="#510DFE" opacity="1.000000" stroke="none" 
	d="
M507.461365,187.957123 
	C513.104919,187.781586 519.216614,187.626068 525.666565,187.704865 
	C519.979736,187.951828 513.954590,187.964493 507.461365,187.957123 
z"/>
<path fill="#510DFE" opacity="1.000000" stroke="none" 
	d="
M605.451416,187.942993 
	C608.118042,187.773666 611.238159,187.627594 614.680420,187.709885 
	C611.970032,187.947571 608.937500,187.956909 605.451416,187.942993 
z"/>
<path fill="#510DFE" opacity="1.000000" stroke="none" 
	d="
M418.434692,187.947876 
	C420.133636,187.779388 422.269714,187.633026 424.703003,187.705292 
	C422.957397,187.939285 420.914642,187.954636 418.434692,187.947876 
z"/>
<path fill="#510DFE" opacity="1.000000" stroke="none" 
	d="
M275.284119,187.269623 
	C276.786774,187.182022 278.590149,187.330078 280.698303,187.703384 
	C279.196991,187.787506 277.390900,187.646378 275.284119,187.269623 
z"/>
<path fill="#510DFE" opacity="1.000000" stroke="none" 
	d="
M329.424805,187.948059 
	C330.808868,187.781998 332.621307,187.638123 334.717651,187.710480 
	C333.285461,187.941223 331.569305,187.955719 329.424805,187.948059 
z"/>
<path fill="#510DFE" opacity="1.000000" stroke="none" 
	d="
M579.425354,187.944946 
	C580.809082,187.779846 582.621155,187.637146 584.717224,187.709885 
	C583.285400,187.939316 581.569519,187.953323 579.425354,187.944946 
z"/>
<path fill="#510DFE" opacity="1.000000" stroke="none" 
	d="
M489.424316,187.952484 
	C490.808136,187.786438 492.620453,187.640991 494.716858,187.711182 
	C493.284912,187.942261 491.568848,187.957672 489.424316,187.952484 
z"/>
<path fill="#510DFE" opacity="1.000000" stroke="none" 
	d="
M650.425537,187.940613 
	C651.809204,187.774307 653.621094,187.631256 655.716980,187.703629 
	C654.285217,187.933975 652.569519,187.948914 650.425537,187.940613 
z"/>
<path fill="#510DFE" opacity="1.000000" stroke="none" 
	d="
M726.427246,187.935028 
	C727.811340,187.768600 729.623352,187.627563 731.719238,187.702698 
	C730.287109,187.932739 728.571106,187.946579 726.427246,187.935028 
z"/>
<path fill="#510DFE" opacity="1.000000" stroke="none" 
	d="
M459.395203,187.951233 
	C460.748199,187.635529 462.500336,187.340759 464.655945,187.073380 
	C463.304413,187.391235 461.549347,187.681717 459.395203,187.951233 
z"/>
<path fill="#510DFE" opacity="1.000000" stroke="none" 
	d="
M674.411621,187.934967 
	C675.486206,187.770004 676.977661,187.629990 678.736328,187.699982 
	C677.611877,187.926620 676.220215,187.943253 674.411621,187.934967 
z"/>
<path fill="#510DFE" opacity="1.000000" stroke="none" 
	d="
M691.413757,187.932800 
	C692.486816,187.768326 693.976135,187.629486 695.732666,187.699448 
	C694.609863,187.924988 693.219971,187.941711 691.413757,187.932800 
z"/>
<path fill="#510DFE" opacity="1.000000" stroke="none" 
	d="
M530.394165,187.949249 
	C531.166199,187.789444 532.338928,187.650864 533.756775,187.715485 
	C532.932922,187.935944 531.863831,187.953232 530.394165,187.949249 
z"/>
<path fill="#510DFE" opacity="1.000000" stroke="none" 
	d="
M437.394836,187.951721 
	C438.167480,187.793396 439.340759,187.656265 440.758911,187.724075 
	C439.934326,187.943649 438.864899,187.958282 437.394836,187.951721 
z"/>
<path fill="#510DFE" opacity="1.000000" stroke="none" 
	d="
M387.392120,187.950134 
	C388.165497,187.789993 389.339996,187.651840 390.759705,187.718277 
	C389.934357,187.939270 388.863800,187.955688 387.392120,187.950134 
z"/>
<path fill="#510DFE" opacity="1.000000" stroke="none" 
	d="
M413.367859,187.942902 
	C413.853027,187.792175 414.714630,187.664139 415.790833,187.728943 
	C415.251740,187.936386 414.498016,187.950989 413.367859,187.942902 
z"/>
<path fill="#510DFE" opacity="1.000000" stroke="none" 
	d="
M475.195068,187.311356 
	C475.791229,187.242905 476.646179,187.374374 477.752686,187.714508 
	C477.154114,187.785858 476.304016,187.648560 475.195068,187.311356 
z"/>
<path fill="#510DFE" opacity="1.000000" stroke="none" 
	d="
M305.323120,187.951385 
	C305.545776,187.818741 306.106354,187.703476 306.839905,187.757584 
	C306.562286,187.940903 306.111633,187.954849 305.323120,187.951385 
z"/>
<path fill="#510DFE" opacity="1.000000" stroke="none" 
	d="
M558.324219,187.943909 
	C558.546570,187.812805 559.105896,187.700806 559.837646,187.757034 
	C559.560486,187.937851 559.110840,187.950424 558.324219,187.943909 
z"/>
<path fill="#510DFE" opacity="1.000000" stroke="none" 
	d="
M572.277588,187.901581 
	C572.483948,187.645416 572.979614,187.373886 573.766235,187.086487 
	C573.560486,187.342499 573.063660,187.614349 572.277588,187.901581 
z"/>
<path fill="#510DFE" opacity="1.000000" stroke="none" 
	d="
M596.322815,187.951080 
	C596.545959,187.819519 597.107056,187.705765 597.840820,187.761993 
	C597.562622,187.944275 597.111694,187.956573 596.322815,187.951080 
z"/>
<path fill="#510DFE" opacity="1.000000" stroke="none" 
	d="
M709.325562,187.926605 
	C709.547424,187.793716 710.105774,187.682877 710.836853,187.738205 
	C710.560425,187.919128 710.111267,187.933899 709.325562,187.926605 
z"/>
<path fill="#510DFE" opacity="1.000000" stroke="none" 
	d="
M292.322998,187.937683 
	C292.545471,187.804459 293.105621,187.691040 293.838898,187.745422 
	C293.561584,187.927979 293.111115,187.942734 292.322998,187.937683 
z"/>
<path fill="#510DFE" opacity="1.000000" stroke="none" 
	d="
M380.240295,187.929169 
	C380.204773,187.622406 380.475952,187.549149 380.906281,187.808075 
	C380.845032,187.926834 380.672241,187.934311 380.240295,187.929169 
z"/>
<path fill="#1A00FF" opacity="1.000000" stroke="none" 
	d="
M222.338150,838.260620 
	C362.898193,838.009155 503.790802,838.004822 644.683411,837.996765 
	C697.143616,837.993774 749.603821,837.982117 802.532837,837.984985 
	C801.084412,838.327087 799.167297,838.948547 797.250061,838.949036 
	C607.530823,838.999329 417.811584,839.003906 228.092346,838.987915 
	C226.285110,838.987732 224.477921,838.673706 222.338150,838.260620 
z"/>
<path fill="#1A00FF" opacity="1.000000" stroke="none" 
	d="
M800.620728,841.723328 
	C608.953735,841.976746 416.961151,841.984253 224.504730,841.984558 
	C225.959045,841.647644 227.877151,841.029724 229.795395,841.029358 
	C418.319855,840.992004 606.844299,841.000244 795.368774,841.027405 
	C797.010864,841.027588 798.653015,841.320984 800.620728,841.723328 
z"/>
<path fill="#0500FE" opacity="1.000000" stroke="none" 
	d="
M177.762665,234.324982 
	C178.003860,239.097946 177.983368,244.201309 177.983322,249.304657 
	C177.981522,430.211273 177.981644,611.117920 177.980011,792.487671 
	C177.652191,791.032715 177.040466,789.114624 177.040024,787.196411 
	C176.997345,604.656067 176.999878,422.115784 177.023117,239.575455 
	C177.023315,237.935410 177.341034,236.295410 177.762665,234.324982 
z"/>
<path fill="#1200FF" opacity="1.000000" stroke="none" 
	d="
M175.268036,791.644043 
	C175.015121,606.969116 175.014862,421.969513 175.017700,236.506134 
	C175.350082,237.959442 175.967224,239.876480 175.967697,241.793686 
	C176.012177,423.161194 176.011108,604.528687 175.989929,785.896240 
	C175.989716,787.703979 175.683868,789.511719 175.268036,791.644043 
z"/>
<path fill="#3201FE" opacity="1.000000" stroke="none" 
	d="
M181.783691,216.206070 
	C181.258987,218.514755 180.456894,221.048950 179.360413,223.774307 
	C179.879440,221.454178 180.692871,218.942871 181.783691,216.206070 
z"/>
<path fill="#FFFFFF" opacity="1.000000" stroke="none" 
	d="
M625.894531,298.285919 
	C636.180603,301.396698 646.860107,303.597412 656.659302,307.834229 
	C670.902832,313.992554 681.915405,324.492889 690.475952,338.247375 
	C691.168457,339.186157 691.511963,339.645081 691.855469,340.104004 
	C691.855530,340.103973 691.978394,340.018921 691.955322,340.357727 
	C692.257019,341.154236 692.581787,341.611908 692.906555,342.069580 
	C692.906555,342.069580 693.000000,342.018341 692.976318,342.344788 
	C693.271545,343.147369 693.590454,343.623535 693.909363,344.099701 
	C693.909363,344.099701 693.973206,344.030396 693.960571,344.345886 
	C694.271484,345.134766 694.595093,345.608093 694.918701,346.081451 
	C694.918701,346.081451 694.996826,346.015167 694.969727,346.375793 
	C695.505798,347.916260 696.068970,349.096069 696.632080,350.275879 
	C696.632080,350.275879 696.914612,350.009979 696.833069,350.458405 
	C697.078613,351.686005 697.405640,352.465210 697.732666,353.244415 
	C697.732666,353.244415 697.837402,353.106567 697.827820,353.544922 
	C699.196411,361.911896 701.617310,369.821106 701.764832,377.772522 
	C702.288635,405.997345 702.233521,434.238586 701.947571,462.469025 
	C701.871399,469.992462 700.188171,477.499634 699.242798,485.014252 
	C687.341370,525.302124 659.929382,545.846802 617.446167,548.130310 
	C618.421387,550.300659 618.888672,551.951721 619.806519,553.294800 
	C656.553772,607.067566 693.341553,660.812683 730.126587,714.559631 
	C730.688843,715.381165 731.307800,716.164429 731.855347,716.995178 
	C736.983704,724.775146 736.260010,726.696472 726.748169,728.752197 
	C700.329407,728.998291 674.673828,729.062195 649.018311,729.126099 
	C645.903809,728.725159 642.768127,728.437134 639.686401,727.860901 
	C638.635925,727.664490 637.395630,726.973328 636.792542,726.119385 
	C627.064636,712.344299 617.279480,698.605835 607.793274,684.664490 
	C577.704346,640.444336 547.759338,596.126221 517.638062,551.928223 
	C516.266052,549.915039 513.719116,548.702637 510.899109,547.070007 
	C479.041412,547.072510 448.004059,547.122314 416.966675,547.172119 
	C415.425537,548.234436 413.884399,549.296753 412.189117,551.140930 
	C412.023773,565.551453 412.017365,579.179993 412.000519,592.808594 
	C411.946442,636.518982 411.888550,680.229431 411.832123,723.939819 
	C410.058075,728.118042 406.067261,727.783325 401.813660,728.673157 
	C386.384491,728.909485 371.725616,729.030029 357.067505,728.968750 
	C349.752380,728.938232 342.438660,728.575256 335.124298,728.362671 
	C330.736481,728.198181 327.712860,726.412659 327.094482,720.863647 
	C327.010193,690.931824 327.018158,661.809448 327.000763,632.687073 
	C326.967773,577.439941 326.920258,522.192871 326.878784,466.945770 
	C326.878784,466.945770 327.053101,466.593262 327.301270,466.278625 
	C327.744751,465.649658 327.940002,465.335327 328.135254,465.020996 
	C328.301575,465.002472 328.467834,464.983978 329.237915,464.710327 
	C331.478516,464.302124 333.115204,464.015778 334.752014,464.015167 
	C391.358948,463.993408 447.965912,464.022003 504.572845,463.990997 
	C537.033569,463.973206 569.494324,463.865021 601.955078,463.797546 
	C611.291504,461.682709 615.192627,457.509094 616.971313,446.881531 
	C616.919556,429.013977 616.869324,411.995605 616.819092,394.977203 
	C614.644165,386.387726 610.258789,382.997528 601.187744,382.996704 
	C516.702393,382.988983 432.216980,382.940094 347.731964,383.103394 
	C341.905975,383.114655 337.779907,381.127136 334.584808,376.641235 
	C318.890717,354.606934 303.174042,332.588226 287.602234,310.467682 
	C283.733459,304.971863 284.006866,302.031921 288.379425,298.474640 
	C290.697693,298.064728 292.362488,298.001892 294.027283,298.001831 
	C395.323853,297.998627 496.620422,297.993134 597.916992,298.014313 
	C607.242859,298.016266 616.568665,298.191284 625.894531,298.285919 
z"/>
<path fill="#1200FF" opacity="1.000000" stroke="none" 
	d="
M625.612183,297.986572 
	C616.568665,298.191284 607.242859,298.016266 597.916992,298.014313 
	C496.620422,297.993134 395.323853,297.998627 294.027283,298.001831 
	C292.362488,298.001892 290.697693,298.064728 288.582275,298.177094 
	C289.833435,297.840393 291.535004,297.062164 293.237061,297.061188 
	C402.313293,296.998840 511.389557,296.996582 620.465820,297.023468 
	C622.087219,297.023865 623.708496,297.456390 625.612183,297.986572 
z"/>
<path fill="#1200FF" opacity="1.000000" stroke="none" 
	d="
M601.604004,463.589935 
	C569.494324,463.865021 537.033569,463.973206 504.572845,463.990997 
	C447.965912,464.022003 391.358948,463.993408 334.752014,464.015167 
	C333.115204,464.015778 331.478516,464.302124 329.451538,464.578613 
	C330.653564,464.141296 332.245361,463.091400 333.838135,463.089905 
	C421.824219,463.008179 509.810364,463.012695 597.796509,463.026642 
	C598.948608,463.026825 600.100769,463.258667 601.604004,463.589935 
z"/>
<path fill="#1A00FF" opacity="1.000000" stroke="none" 
	d="
M326.644531,467.292969 
	C326.920258,522.192871 326.967773,577.439941 327.000763,632.687073 
	C327.018158,661.809448 327.010193,690.931824 326.960266,720.519531 
	C326.601898,719.224365 326.031158,717.464050 326.030243,715.703430 
	C325.988342,634.662659 325.993713,553.621887 326.015381,472.581116 
	C326.015808,470.934113 326.272888,469.287140 326.644531,467.292969 
z"/>
<path fill="#510DFE" opacity="1.000000" stroke="none" 
	d="
M699.567261,484.884521 
	C700.188171,477.499634 701.871399,469.992462 701.947571,462.469025 
	C702.233521,434.238586 702.288635,405.997345 701.764832,377.772522 
	C701.617310,369.821106 699.196411,361.911896 697.755310,353.592224 
	C698.787537,355.449890 700.353333,357.590088 700.901367,359.965149 
	C704.407410,375.160431 704.082947,390.634979 704.002991,406.096832 
	C703.902222,425.578766 704.325073,445.070984 703.793884,464.538910 
	C703.609192,471.308014 701.255005,478.017883 699.567261,484.884521 
z"/>
<path fill="#1200FF" opacity="1.000000" stroke="none" 
	d="
M412.120361,723.643188 
	C411.888550,680.229431 411.946442,636.518982 412.000519,592.808594 
	C412.017365,579.179993 412.023773,565.551453 412.146484,551.463989 
	C412.503632,552.619324 412.962738,554.233398 412.963959,555.847839 
	C413.004517,610.219666 413.006104,664.591492 412.979797,718.963318 
	C412.979095,720.424500 412.607330,721.885498 412.120361,723.643188 
z"/>
<path fill="#1A00FF" opacity="1.000000" stroke="none" 
	d="
M417.319489,547.392883 
	C448.004059,547.122314 479.041412,547.072510 510.541992,547.114746 
	C509.567322,547.479004 508.129852,547.986511 506.691620,547.988586 
	C478.163574,548.029602 449.635376,548.016663 421.107269,547.989929 
	C419.962158,547.988892 418.817291,547.744568 417.319489,547.392883 
z"/>
<path fill="#1200FF" opacity="1.000000" stroke="none" 
	d="
M649.363586,729.349670 
	C674.673828,729.062195 700.329407,728.998291 726.439392,728.985107 
	C725.467346,729.347595 724.041626,729.927551 722.614258,729.931274 
	C699.127258,729.992798 675.639954,729.985962 652.152771,729.969543 
	C651.338074,729.968994 650.523499,729.711121 649.363586,729.349670 
z"/>
<path fill="#1200FF" opacity="1.000000" stroke="none" 
	d="
M335.370453,728.705505 
	C342.438660,728.575256 349.752380,728.938232 357.067505,728.968750 
	C371.725616,729.030029 386.384491,728.909485 401.505554,728.901306 
	C400.560242,729.285217 399.153412,729.928650 397.744324,729.933594 
	C378.452789,730.001221 359.160889,730.000183 339.869324,729.941467 
	C338.450836,729.937195 337.034149,729.359497 335.370453,728.705505 
z"/>
<path fill="#1200FF" opacity="1.000000" stroke="none" 
	d="
M616.604004,395.331818 
	C616.869324,411.995605 616.919556,429.013977 616.897339,446.492706 
	C616.579468,446.342926 616.117981,445.732025 616.120239,445.122864 
	C616.180847,428.643951 616.288879,412.165192 616.604004,395.331818 
z"/>
<path fill="#510DFE" opacity="1.000000" stroke="none" 
	d="
M696.703979,349.917206 
	C696.068970,349.096069 695.505798,347.916260 694.923584,346.397827 
	C695.528259,347.225677 696.152039,348.392120 696.703979,349.917206 
z"/>
<path fill="#510DFE" opacity="1.000000" stroke="none" 
	d="
M697.780884,352.891510 
	C697.405640,352.465210 697.078613,351.686005 696.682983,350.581482 
	C697.019287,351.016937 697.424194,351.777771 697.780884,352.891510 
z"/>
<path fill="#510DFE" opacity="1.000000" stroke="none" 
	d="
M694.895874,345.783447 
	C694.595093,345.608093 694.271484,345.134766 693.915466,344.359497 
	C694.213013,344.533539 694.542969,345.009491 694.895874,345.783447 
z"/>
<path fill="#510DFE" opacity="1.000000" stroke="none" 
	d="
M693.888184,343.802246 
	C693.590454,343.623535 693.271545,343.147369 692.929199,342.365509 
	C693.226135,342.541473 693.546509,343.023132 693.888184,343.802246 
z"/>
<path fill="#510DFE" opacity="1.000000" stroke="none" 
	d="
M692.883057,341.776245 
	C692.581787,341.611908 692.257019,341.154236 691.896484,340.398102 
	C692.193604,340.560699 692.526550,341.021790 692.883057,341.776245 
z"/>
<path fill="#510DFE" opacity="1.000000" stroke="none" 
	d="
M691.825439,339.798187 
	C691.511963,339.645081 691.168457,339.186157 690.753174,338.429382 
	C691.052795,338.585175 691.424133,339.038788 691.825439,339.798187 
z"/>
<path fill="#1200FF" opacity="1.000000" stroke="none" 
	d="
M327.922180,465.187744 
	C327.940002,465.335327 327.744751,465.649658 327.293396,466.082153 
	C327.261230,465.918365 327.485168,465.636414 327.922180,465.187744 
z"/>
<path fill="#510DFE" opacity="1.000000" stroke="none" 
	d="
M382.000000,185.997543 
	C364.874146,185.997818 348.248291,185.997818 331.622467,185.997818 
	C331.623291,185.767563 331.624084,185.537323 331.624908,185.307068 
	C457.209412,185.307068 582.793945,185.307068 708.378418,185.307068 
	C708.378906,185.537140 708.379333,185.767197 708.379822,185.997269 
	C599.753235,185.997269 491.126617,185.997269 382.000000,185.997543 
z"/>
<path fill="#510DFE" opacity="1.000000" stroke="none" 
	d="
M300.831879,184.997330 
	C302.763885,185.019653 304.253235,185.020905 305.739960,185.084030 
	C305.991547,185.094696 306.231812,185.371750 306.868713,185.771194 
	C301.905579,185.771194 297.336487,185.771194 292.767365,185.771194 
	C292.744843,185.513153 292.722351,185.255127 292.699829,184.997086 
	C295.262665,184.997086 297.825500,184.997086 300.831879,184.997330 
z"/>
</svg>